<svg data-testid="icon-now-logo" xmlns="http://www.w3.org/2000/svg" width="3.9375rem" height="100%" viewBox="0 0 78 24"><path d="M34.2950726,17.6978452 C31.1391867,17.6978452 28.580757,15.1339319 28.580757,11.9712817 C28.580757,8.80855728 31.1391867,6.24464396 34.2950726,6.24464396 C37.4509586,6.24464396 40.0093882,8.80855728 40.0093882,11.9712817 C40.0093882,15.1339319 37.4509586,17.6978452 34.2950726,17.6978452 M75.8826411,0.879343653 C74.0486772,-0.0461052632 71.804546,0.709040248 70.8884167,2.56669969 L66.937257,10.5308359 L64.3789757,3.00033437 L64.3740821,2.99966563 C63.8655992,1.53648297 62.4833236,0.487021672 60.8575574,0.487021672 C59.5614376,0.487021672 58.4201316,1.15404334 57.7528312,2.16590712 L57.7474186,2.16523839 L52.6428673,10.0051393 L51.7383787,3.65331269 C51.4256373,1.60848297 49.5279833,0.215219814 47.5011696,0.527962848 C45.471835,0.839591331 44.0791049,2.72890402 44.3902894,4.76258824 L44.5485137,5.82765325 C42.4614205,2.33710217 38.6504681,-3.71517028e-05 34.2944795,-3.71517028e-05 C29.900603,-3.71517028e-05 26.0614015,2.37863777 23.9867646,5.9204582 L24.2140175,4.80508978 C24.6115061,2.85410526 23.3554985,0.949486068 21.4084643,0.551145511 C19.4621715,0.153845201 17.5609586,1.41172755 17.1638407,3.36286068 L15.6171125,10.9562229 L9.92778365,2.130613 C9.28435779,1.14245201 8.17441483,0.489622291 6.91277224,0.489622291 C5.18594715,0.489622291 3.74324373,1.71235913 3.39231787,3.34428483 L0.0744262357,19.6202229 C-0.322914068,21.5712074 0.909070722,23.4674303 2.85921901,23.8815975 C3.10167148,23.9330898 3.36443954,23.9577585 3.60325894,23.9595548 C5.27195475,23.9712074 6.77360304,22.7972879 7.1245289,21.062452 L8.67155361,13.4691641 C8.67155361,13.4691641 14.2508521,22.149808 14.255449,22.154935 C14.255449,22.154935 14.3866106,22.3576347 14.4487437,22.4456099 C15.0852741,23.3472074 16.1639281,23.9595548 17.3772285,23.9595548 C19.1512837,23.9595548 20.6254985,22.6667368 20.9220023,20.9656347 L22.4448559,13.4898947 C23.1894148,19.3840124 28.2109243,23.9425263 34.2944795,23.9425263 C39.8986905,23.9425263 44.6006373,20.0748854 45.8898616,14.8586378 L46.7383711,20.570935 C46.9771905,22.4511827 48.5158369,23.9391084 50.4441125,23.9391084 C51.8312817,23.9391084 52.9628749,23.1451022 53.682373,22.0420681 L59.8019624,12.6432074 L62.7412722,21.2961362 C63.2676981,22.8392693 64.626989,23.9391084 66.3006525,23.9391084 C67.8554624,23.9391084 69.0772894,23.0039257 69.7457019,21.6155666 L77.5459985,5.88144892 C78.4665023,4.03671827 77.7177171,1.80531269 75.8826411,0.879343653" fill="#fff"></path></svg>